<?xml version="1.0" standalone="no"?>
<!DOCTYPE svg PUBLIC "-//W3C//DTD SVG 20010904//EN"
 "http://www.w3.org/TR/2001/REC-SVG-20010904/DTD/svg10.dtd">
<svg version="1.0" xmlns="http://www.w3.org/2000/svg"
 width="1519.000000pt" height="760.000000pt" viewBox="0 0 1519.000000 760.000000"
 preserveAspectRatio="xMidYMid meet">

<g transform="translate(0.000000,760.000000) scale(0.100000,-0.100000)"
fill="#000000" stroke="none">
<path d="M5435 6404 c-981 -246 -1023 -256 -1035 -249 -8 5 -11 33 -8 86 3 44
3 79 1 79 -1 0 -22 -15 -46 -33 -37 -28 -92 -50 -223 -88 -104 -31 -498 -36
-634 -9 -210 42 -342 93 -405 156 -28 27 -35 31 -36 17 0 -10 -6 -139 -12
-287 l-12 -270 -97 -25 c-94 -25 -97 -26 -91 -51 3 -14 7 -27 9 -29 2 -2 35 4
75 13 102 23 99 24 99 -34 0 -27 3 -50 8 -50 10 1 185 26 337 49 142 22 339
51 510 76 100 15 235 35 432 66 l71 12 4 97 c1 54 6 101 9 105 7 6 71 22 196
49 37 8 149 32 248 55 99 22 234 52 300 67 66 14 158 35 205 46 47 10 105 23
130 28 25 5 133 29 240 53 107 24 223 50 256 57 88 18 88 17 70 85 -8 32 -18
61 -23 65 -4 3 -264 -58 -578 -136z"/>
<path d="M3607 6512 c-12 -11 -18 -12 -35 -1 -16 10 -26 10 -47 1 -15 -7 -31
-10 -36 -7 -4 3 -27 1 -49 -5 -22 -6 -64 -11 -93 -11 -42 -1 -59 -7 -86 -29
-53 -42 -38 -61 69 -90 25 -7 54 -16 65 -21 11 -4 45 -11 75 -15 30 -3 60 -10
65 -14 18 -13 113 -21 120 -10 5 8 11 8 20 0 8 -6 44 -11 82 -10 37 1 78 -1
91 -5 13 -4 22 -3 22 3 0 6 -8 13 -17 15 -10 3 6 3 35 1 32 -3 59 -1 67 6 8 7
23 9 35 5 12 -4 27 -2 33 4 7 5 35 11 62 13 28 1 57 7 65 14 8 6 27 14 43 18
40 9 36 42 -8 60 -19 8 -35 19 -35 23 0 4 -23 9 -51 10 -28 1 -57 7 -64 13 -7
6 -20 8 -29 4 -9 -3 -24 0 -33 7 -16 14 -51 19 -122 19 -19 0 -38 5 -43 12 -6
11 -11 10 -28 0 -11 -7 -26 -9 -32 -6 -23 14 -126 11 -141 -4z m330 -28 c-3
-3 -12 -4 -19 -1 -8 3 -5 6 6 6 11 1 17 -2 13 -5z m258 -84 c3 -5 1 -10 -4
-10 -6 0 -11 5 -11 10 0 6 2 10 4 10 3 0 8 -4 11 -10z m-240 -50 c3 -5 -1 -10
-10 -10 -9 0 -13 5 -10 10 3 6 8 10 10 10 2 0 7 -4 10 -10z"/>
<path d="M5960 5984 c-111 -18 -248 -39 -385 -59 -60 -9 -166 -24 -235 -35
-136 -21 -315 -48 -535 -80 -77 -11 -180 -27 -230 -35 -49 -8 -137 -22 -195
-30 -58 -8 -166 -24 -240 -35 -74 -11 -196 -29 -270 -40 -150 -22 -358 -53
-465 -70 -38 -6 -146 -22 -240 -36 -305 -44 -296 -42 -289 -73 4 -14 8 -27 9
-29 2 -2 31 2 65 8 l62 11 43 -40 c73 -67 165 -106 333 -140 132 -27 181 -31
362 -32 233 -2 410 29 523 90 77 42 87 60 95 181 l7 105 45 7 c25 4 122 17
215 28 94 11 242 29 330 40 88 11 248 31 355 44 293 37 613 77 720 90 89 11
95 13 94 34 0 12 -1 42 -2 67 l-2 45 -42 -1 c-24 -1 -81 -7 -128 -15z"/>
<path d="M8735 5769 c-152 -12 -376 -39 -412 -50 -41 -13 -99 -77 -112 -126
-15 -54 -14 -138 5 -243 23 -137 1 -263 -57 -321 -18 -18 -35 -19 -275 -19
-281 0 -300 3 -349 62 -14 16 -35 62 -46 101 -74 244 -207 439 -346 508 -41
20 -63 24 -148 24 -90 0 -106 -3 -160 -29 -41 -20 -81 -52 -125 -100 -312
-335 -309 -332 -367 -323 -81 14 -200 127 -240 229 -44 112 -132 195 -240 224
-59 16 -71 16 -315 -9 -227 -22 -259 -28 -311 -52 -70 -33 -155 -108 -194
-171 -32 -51 -32 -51 -173 -58 -184 -8 -415 -82 -574 -184 l-50 -32 -602 0
c-332 0 -613 4 -626 9 -43 16 -75 61 -197 276 -68 118 -136 226 -152 239 -39
33 -104 41 -219 28 -131 -16 -200 -35 -305 -86 -190 -91 -341 -243 -431 -433
-14 -30 -39 -107 -56 -171 -36 -137 -40 -256 -14 -365 9 -38 16 -85 16 -106 0
-35 -42 -184 -116 -415 -60 -185 -46 -334 44 -466 46 -68 139 -143 212 -172
162 -64 602 -10 879 107 204 86 182 84 291 30 108 -54 355 -131 515 -161 140
-27 167 -29 400 -29 231 0 261 2 400 28 82 16 198 44 257 63 141 46 249 64
378 64 123 0 243 -18 355 -53 196 -62 332 -81 585 -81 220 -1 386 18 529 61
136 41 147 41 211 -8 159 -120 360 -161 563 -115 67 15 85 24 122 59 55 54 71
105 55 184 -24 114 2 154 146 223 140 66 271 104 336 97 70 -9 147 -47 186
-93 19 -21 56 -75 84 -119 59 -93 174 -215 269 -286 141 -104 347 -180 538
-198 305 -28 636 92 845 307 l49 51 55 -45 c107 -87 213 -124 355 -124 120 0
220 33 311 102 38 29 74 57 81 62 7 5 42 -3 93 -23 256 -98 486 -105 727 -20
118 42 155 40 296 -10 193 -68 374 -86 574 -56 122 19 170 11 333 -50 148 -55
217 -68 367 -68 160 0 230 14 351 73 185 89 323 247 385 439 57 177 49 355
-23 530 l-31 73 32 93 c89 266 -15 518 -269 645 -121 61 -203 80 -345 80 -76
0 -143 -6 -180 -15 -75 -19 -215 -86 -265 -125 -21 -17 -41 -30 -45 -30 -4 0
-29 16 -55 35 -61 45 -180 100 -262 122 -87 23 -290 22 -377 -1 -77 -21 -212
-86 -264 -127 -43 -35 -107 -65 -158 -74 -79 -15 -179 43 -194 111 -26 118
-96 171 -278 208 -96 20 -202 20 -292 0 -132 -29 -151 -29 -193 -1 -79 55
-130 71 -243 75 -58 2 -137 -1 -175 -8 -144 -24 -147 -24 -205 4 -30 14 -87
55 -128 91 -150 132 -206 145 -621 143 -173 0 -360 -4 -415 -9z m734 -69 c100
-13 182 -53 267 -130 80 -73 176 -122 237 -123 23 0 78 7 122 16 163 33 288
18 382 -47 68 -47 96 -51 189 -27 44 11 108 23 144 27 120 12 325 -39 372 -92
9 -10 21 -39 28 -63 51 -193 266 -238 462 -98 78 56 171 101 253 122 76 19
250 19 332 0 69 -16 203 -80 249 -118 71 -59 93 -60 164 -6 162 122 378 169
570 123 88 -20 214 -83 275 -137 136 -121 180 -316 111 -489 -33 -82 -33 -117
3 -203 43 -107 56 -171 55 -280 0 -285 -179 -533 -460 -637 -53 -19 -79 -22
-239 -22 -199 0 -162 -8 -425 89 -88 33 -182 37 -353 18 -178 -21 -350 5 -550
83 -49 18 -95 34 -103 34 -8 0 -74 -20 -147 -45 -166 -56 -281 -71 -412 -56
-101 12 -244 50 -305 81 -58 29 -109 26 -156 -10 -21 -17 -57 -44 -78 -60 -53
-41 -181 -80 -261 -80 -121 0 -252 58 -339 149 -44 46 -72 41 -136 -25 -128
-132 -298 -232 -475 -281 -89 -25 -117 -28 -255 -28 -138 0 -166 3 -255 28
-181 50 -325 133 -455 266 -47 47 -105 120 -130 160 -25 41 -70 101 -100 133
-99 105 -224 132 -393 83 -125 -36 -272 -104 -322 -147 -64 -56 -79 -102 -70
-220 l7 -98 -29 -29 c-54 -54 -241 -77 -378 -47 -83 18 -121 36 -217 101 -80
54 -85 56 -138 53 -30 -2 -94 -16 -142 -31 -283 -86 -754 -80 -1053 13 -144
45 -254 63 -390 63 -146 1 -231 -13 -395 -64 -511 -158 -1054 -123 -1546 100
-51 22 -107 41 -126 41 -18 0 -66 -16 -106 -35 -160 -76 -343 -130 -532 -155
-172 -23 -276 -25 -348 -6 -162 44 -280 188 -290 355 -5 85 0 104 88 386 75
240 77 248 51 354 -29 125 -27 214 8 355 62 246 203 427 422 545 102 55 203
81 329 87 92 5 109 3 136 -14 23 -15 65 -79 155 -238 68 -121 138 -235 156
-254 l31 -35 658 -3 657 -2 66 39 c182 110 362 166 566 178 61 3 120 9 132 14
12 4 40 34 61 67 94 138 153 165 413 192 255 27 314 27 370 3 73 -33 105 -68
155 -170 103 -209 276 -318 404 -253 23 12 106 93 209 204 201 217 222 231
346 231 71 0 86 -4 135 -31 115 -65 233 -255 295 -477 19 -71 79 -141 145
-170 42 -19 65 -21 318 -20 312 0 301 -3 358 91 54 90 67 215 38 358 -18 88
-13 183 12 221 8 13 29 30 47 38 33 14 245 40 442 54 160 12 598 12 684 1z"/>
<path d="M2494 5495 c-123 -31 -195 -62 -281 -119 -160 -105 -231 -239 -220
-410 8 -129 40 -195 170 -350 60 -72 116 -145 123 -163 8 -18 14 -58 14 -90 0
-69 -21 -109 -79 -151 -39 -29 -167 -74 -243 -87 -32 -5 -38 -10 -38 -31 0
-56 181 -364 213 -364 26 0 164 40 227 66 89 36 218 123 277 188 122 133 170
309 127 471 -20 80 -49 128 -160 266 -170 211 -190 282 -103 367 44 43 123 66
201 59 43 -4 61 -2 64 8 3 7 -15 52 -39 101 -24 49 -59 123 -78 164 -39 90
-46 100 -68 100 -9 -1 -57 -12 -107 -25z"/>
<path d="M5595 5479 c-33 -5 -115 -13 -183 -17 -67 -5 -127 -13 -132 -18 -7
-7 -7 -29 0 -65 19 -96 29 -460 30 -1015 0 -491 2 -543 17 -555 12 -10 60 -15
186 -17 94 -2 181 -1 194 3 l23 5 0 349 0 349 25 30 c36 43 101 72 163 72 61
0 96 -14 119 -49 16 -24 18 -58 18 -381 l0 -354 25 -13 c17 -9 79 -13 203 -13
l177 0 11 27 c15 41 7 907 -10 957 -19 58 -104 138 -176 167 -50 19 -78 23
-165 23 -125 0 -174 -16 -302 -99 -58 -38 -85 -50 -90 -42 -4 7 -5 55 -3 107
3 52 7 200 10 328 l5 232 -42 -1 c-24 -1 -70 -5 -103 -10z"/>
<path d="M8416 5463 c-17 -5 -18 -17 -10 -271 12 -356 10 -845 -4 -1126 -7
-143 -7 -236 -1 -247 14 -27 102 -32 514 -33 312 -1 384 2 460 16 272 53 425
232 425 499 0 152 -55 276 -152 346 l-48 35 36 40 c110 122 144 218 126 353
-21 157 -84 250 -215 315 -134 67 -180 72 -677 75 -239 2 -443 1 -454 -2z
m702 -333 c128 -14 172 -52 172 -148 0 -63 -30 -103 -98 -129 -61 -23 -297
-27 -311 -4 -14 22 -21 130 -13 206 l7 70 35 6 c55 10 118 10 208 -1z m121
-672 c62 -31 91 -76 91 -143 0 -65 -29 -112 -85 -140 -35 -17 -60 -20 -192
-20 -102 0 -156 4 -164 12 -15 15 -24 214 -12 268 8 37 12 41 48 47 22 4 91 5
154 3 93 -4 123 -9 160 -27z"/>
<path d="M6855 5431 c-69 -17 -143 -78 -164 -134 -25 -67 -2 -166 50 -214 66
-60 217 -76 307 -31 117 58 136 219 36 315 -62 60 -147 84 -229 64z"/>
<path d="M10117 5426 c-58 -16 -116 -60 -139 -107 -24 -47 -24 -139 1 -188 40
-78 151 -120 268 -101 32 6 61 10 65 10 18 0 73 59 89 95 21 45 24 119 8 162
-37 100 -176 162 -292 129z"/>
<path d="M10677 5318 c-4 -12 -7 -111 -7 -219 0 -213 1 -209 -56 -209 -14 0
-34 -5 -45 -10 -17 -10 -19 -23 -19 -159 0 -166 -2 -161 76 -161 57 0 58 -5
50 -293 -9 -315 -5 -339 63 -407 36 -36 60 -50 111 -64 84 -24 238 -25 340 -1
76 18 177 62 197 87 16 19 39 266 26 279 -7 7 -31 5 -77 -5 -97 -23 -156 -21
-197 7 -48 32 -58 70 -58 233 -1 114 2 144 14 154 11 9 47 10 145 5 105 -6
131 -5 134 6 2 8 7 92 10 186 l6 172 -153 3 -152 3 2 177 3 177 -48 6 c-26 4
-101 16 -167 27 -194 33 -191 33 -198 6z"/>
<path d="M4825 5023 c-170 -43 -305 -137 -368 -258 -28 -53 -32 -70 -32 -140
0 -100 22 -146 125 -260 121 -134 136 -199 59 -254 -28 -21 -64 -33 -131 -46
-51 -10 -96 -21 -101 -25 -4 -3 -1 -23 8 -43 21 -50 118 -197 149 -226 26 -24
28 -25 96 -13 95 16 189 55 287 118 99 64 135 110 158 205 34 137 3 236 -117
371 -88 98 -98 115 -98 163 0 73 93 131 199 123 41 -3 46 -1 49 19 4 25 -47
126 -106 213 l-37 55 -60 2 c-33 0 -69 -1 -80 -4z"/>
<path d="M13140 5012 c-142 -37 -278 -140 -332 -250 -28 -56 -33 -78 -33 -137
0 -91 29 -151 130 -265 108 -122 126 -170 84 -224 -30 -38 -62 -52 -164 -71
-50 -10 -94 -21 -98 -25 -11 -10 32 -95 93 -185 68 -101 80 -109 139 -102 74
9 198 53 275 99 156 92 201 163 201 318 0 114 -15 151 -102 253 -118 138 -123
146 -123 187 0 77 97 140 195 127 68 -10 73 7 30 94 -41 81 -79 143 -109 177
-24 27 -90 29 -186 4z"/>
<path d="M11994 5001 c-130 -21 -239 -78 -324 -168 -126 -133 -176 -278 -167
-488 5 -141 27 -222 85 -311 98 -149 231 -232 427 -265 133 -23 347 6 454 60
46 24 131 99 131 115 0 36 -120 257 -139 256 -3 0 -31 -16 -61 -36 -30 -19
-86 -44 -123 -56 -144 -43 -308 -5 -361 85 -18 30 -22 43 -13 48 7 3 66 9 132
13 181 10 527 51 553 65 72 39 69 208 -7 366 -89 187 -262 307 -458 319 -43 3
-101 1 -129 -3z m119 -315 c65 -27 138 -149 108 -179 -13 -13 -93 -25 -227
-33 -108 -7 -112 -6 -118 14 -18 56 36 166 95 195 41 20 99 22 142 3z"/>
<path d="M3056 4915 c-48 -48 -75 -359 -57 -655 12 -179 25 -247 65 -314 33
-57 109 -123 155 -136 154 -44 275 -29 415 51 50 29 99 59 108 67 26 22 35 8
40 -58 2 -33 9 -65 16 -72 16 -16 359 -16 389 0 l21 12 2 442 c1 244 2 493 3
553 l2 110 -215 0 -215 0 -5 -335 c-6 -380 -3 -367 -88 -421 -87 -55 -198 -34
-236 45 -38 80 -42 369 -9 662 l5 51 -92 6 c-167 12 -287 9 -304 -8z"/>
<path d="M6681 4915 c-5 -5 -4 -37 1 -70 5 -33 12 -281 15 -551 l5 -492 30 -6
c39 -8 316 -8 356 0 l30 6 6 492 c3 270 9 520 14 555 5 42 4 64 -3 67 -28 9
-447 8 -454 -1z"/>
<path d="M9954 4919 c-2 -4 1 -54 8 -111 6 -61 12 -285 12 -553 l1 -449 25 -7
c34 -9 350 -10 374 0 18 7 19 26 21 472 1 295 6 496 13 553 7 49 11 90 10 91
-7 6 -460 9 -464 4z"/>
<path d="M7995 4729 c-111 -15 -182 -19 -343 -16 -198 4 -204 3 -217 -17 -22
-34 -86 -256 -92 -321 -8 -82 -1 -87 107 -68 53 8 197 16 378 20 338 6 304 -6
317 118 4 39 17 99 28 135 11 36 20 88 21 115 1 49 0 50 -29 51 -16 1 -93 -7
-170 -17z"/>
<path d="M2081 3114 c-122 -45 -172 -183 -110 -305 26 -53 71 -86 185 -140 58
-27 110 -59 123 -75 29 -37 28 -88 -4 -119 -21 -22 -33 -25 -95 -25 -43 0 -82
6 -99 15 -41 21 -65 77 -58 137 7 52 5 53 -52 42 -30 -6 -31 -8 -31 -61 0
-126 90 -193 259 -193 161 0 261 86 261 224 0 120 -77 199 -267 270 -114 43
-150 103 -100 162 20 23 34 28 83 32 108 8 169 -38 169 -126 l0 -44 39 6 c22
4 42 9 46 11 14 9 -10 98 -36 132 -39 52 -77 66 -179 70 -64 2 -103 -2 -134
-13z"/>
<path d="M3310 3103 c-34 -18 -66 -45 -85 -72 -27 -38 -30 -51 -30 -115 0 -62
4 -78 28 -114 36 -55 106 -105 192 -139 108 -41 152 -98 125 -162 -15 -38 -48
-51 -123 -51 -108 0 -156 53 -144 157 l5 45 -41 -6 c-22 -4 -44 -9 -50 -13
-18 -11 -2 -110 26 -151 42 -65 101 -87 227 -87 89 0 111 3 145 22 81 43 125
114 125 200 0 116 -87 200 -284 273 -69 26 -106 63 -106 105 0 49 37 78 109
83 103 7 163 -38 165 -124 l1 -45 40 7 c22 3 42 8 44 10 10 9 -13 96 -32 125
-36 52 -88 73 -192 77 -83 3 -94 1 -145 -25z"/>
<path d="M6565 3106 c-98 -46 -143 -130 -124 -232 17 -93 84 -158 211 -206 33
-13 79 -39 101 -59 35 -31 41 -41 40 -75 -2 -62 -36 -84 -130 -84 -72 0 -76 1
-109 34 -32 32 -34 38 -34 101 l0 68 -31 -7 c-17 -3 -38 -6 -45 -6 -10 0 -14
-14 -14 -49 0 -86 30 -135 105 -173 51 -26 186 -36 250 -18 155 43 219 204
134 334 -36 53 -98 95 -205 138 -127 50 -167 90 -149 148 17 52 125 77 198 46
49 -20 69 -50 75 -107 l5 -51 36 7 c49 9 49 9 40 57 -4 24 -8 46 -9 50 -1 18
-59 73 -95 89 -61 28 -185 26 -250 -5z"/>
<path d="M13305 3117 c-98 -38 -148 -103 -149 -196 -1 -112 59 -185 202 -247
42 -18 94 -47 115 -64 31 -26 37 -37 37 -71 0 -29 -7 -47 -25 -64 -21 -22 -33
-25 -101 -25 -73 0 -77 1 -110 34 -35 35 -39 52 -34 130 l2 39 -43 -7 c-24 -4
-46 -9 -49 -12 -9 -10 -1 -103 11 -126 19 -38 62 -79 99 -95 49 -21 177 -28
238 -13 172 41 234 225 121 354 -45 51 -112 91 -216 130 -114 43 -150 103
-100 162 20 23 34 28 83 32 107 8 169 -38 169 -125 0 -45 2 -47 54 -37 27 6
31 10 31 41 0 38 -28 99 -57 125 -36 33 -90 48 -170 47 -43 0 -92 -6 -108 -12z"/>
<path d="M2550 2878 c0 -134 4 -270 10 -302 12 -74 47 -122 116 -156 42 -21
63 -25 144 -25 141 0 206 30 253 119 21 39 22 55 25 324 l3 282 -35 0 -35 0
-3 -283 c-3 -308 -4 -315 -64 -353 -33 -22 -125 -22 -158 -1 -40 27 -46 73
-46 365 l0 272 -105 0 -105 0 0 -242z"/>
<path d="M3810 2760 l0 -360 100 0 100 0 2 178 3 177 88 3 87 3 0 -181 0 -180
100 0 100 0 0 360 0 360 -100 0 -100 0 0 -145 0 -146 -87 3 -88 3 -3 143 -3
142 -99 0 -100 0 0 -360z"/>
<path d="M4520 2760 l0 -361 103 3 102 3 0 355 0 355 -102 3 -103 3 0 -361z"/>
<path d="M7096 2782 c-55 -185 -102 -347 -104 -360 -4 -22 -2 -23 33 -20 l38
3 21 75 22 75 110 3 111 3 11 -38 c6 -21 16 -57 22 -80 l11 -43 99 0 c84 0
100 3 100 15 0 15 -24 104 -100 370 -15 55 -43 153 -60 218 l-32 117 -92 0
-91 0 -99 -338z m173 -6 l38 -146 -89 0 c-80 0 -89 2 -84 18 3 9 21 76 42 147
20 72 39 134 42 140 7 11 5 18 51 -159z"/>
<path d="M7640 2760 l0 -360 100 0 100 0 0 144 c0 117 3 146 15 156 10 8 19 9
24 4 5 -5 41 -70 81 -144 40 -74 77 -141 82 -147 7 -9 44 -13 119 -13 60 0
109 2 109 4 0 5 -204 386 -237 443 -14 25 -21 48 -17 55 4 7 43 57 86 111 43
53 78 99 78 102 0 3 -19 5 -43 5 l-43 0 -101 -128 c-55 -71 -108 -140 -118
-155 -9 -15 -21 -27 -26 -27 -5 0 -9 70 -9 155 l0 155 -100 0 -100 0 0 -360z"/>
<path d="M8330 2760 l0 -360 253 2 252 3 3 33 3 32 -150 0 -151 0 0 145 0 145
105 0 105 0 0 35 0 35 -105 0 -105 0 0 110 0 110 125 0 125 0 0 35 0 35 -230
0 -230 0 0 -360z"/>
<path d="M10730 3085 l0 -35 90 0 90 0 0 -325 0 -325 110 0 110 0 0 325 0 325
90 0 90 0 0 35 0 35 -290 0 -290 0 0 -35z"/>
<path d="M11506 3111 c-3 -5 -23 -69 -45 -142 -21 -74 -65 -222 -96 -329 -78
-264 -75 -242 -30 -238 l39 3 23 78 24 77 107 0 108 0 23 -80 24 -80 98 0 c63
0 99 4 99 11 0 17 -20 96 -55 219 -18 63 -57 199 -86 303 l-52 187 -88 0 c-48
0 -90 -4 -93 -9z m114 -478 c0 -2 -40 -3 -90 -3 -49 0 -90 2 -90 5 0 5 75 258
87 295 3 11 92 -272 93 -297z"/>
<path d="M11950 2761 l0 -361 100 0 100 0 0 149 0 148 103 5 c111 5 164 22
209 65 95 91 67 272 -50 326 -43 20 -67 22 -254 25 l-208 3 0 -360z m305 283
c79 -37 89 -194 16 -258 -12 -11 -42 -21 -71 -24 l-50 -5 0 152 0 151 36 0
c20 0 51 -7 69 -16z"/>
<path d="M12730 3094 c-6 -14 -22 -67 -36 -117 -14 -51 -41 -141 -60 -202 -47
-155 -104 -355 -104 -366 0 -6 17 -9 37 -7 36 3 37 3 60 81 l24 77 107 0 108
0 23 -80 24 -80 99 0 100 0 -7 36 c-6 35 -58 224 -147 537 l-42 147 -88 0
c-86 0 -89 -1 -98 -26z m74 -297 c22 -78 41 -148 44 -154 3 -10 -19 -13 -88
-13 -83 0 -92 2 -87 18 63 215 77 266 77 278 0 8 3 14 8 14 4 0 25 -64 46
-143z"/>
<path d="M5394 2996 c-88 -41 -154 -144 -154 -241 0 -60 30 -135 73 -182 62
-67 107 -87 197 -88 65 0 82 4 128 29 247 137 153 506 -128 506 -47 0 -79 -7
-116 -24z"/>
<path d="M9680 2999 c-55 -25 -105 -71 -133 -124 -29 -55 -31 -182 -3 -239 25
-50 75 -100 129 -128 59 -31 175 -32 232 -1 161 86 203 288 88 422 -74 87
-210 117 -313 70z"/>
</g>
</svg>
